<svg viewBox="0 0 480 480" width="480" height="480" fill="none" xmlns="http://www.w3.org/2000/svg"><path d="M479.46 219.414a5.223 5.223 0 00-4.148-5.096l-39.898-5.768a196.413 196.413 0 00-10.099-37.768l31.653-24.937a5.225 5.225 0 001.019-6.513 416.837 416.837 0 00-21.095-36.535 5.221 5.221 0 00-6.115-2.364l-37.493 14.93a197.676 197.676 0 00-27.628-27.628l14.961-37.462a5.22 5.22 0 00-2.365-6.115 416.626 416.626 0 00-36.535-21.096 5.227 5.227 0 00-6.512 1.02l-24.937 31.622a196.37 196.37 0 00-37.769-10.099l-5.768-39.898a5.214 5.214 0 00-5.095-4.148 410.292 410.292 0 00-42.191 0 5.22 5.22 0 00-5.096 4.148l-5.768 39.898a196.34 196.34 0 00-37.768 10.1L145.814 24.05a5.229 5.229 0 00-6.512-1.02 416.626 416.626 0 00-36.535 21.096 5.215 5.215 0 00-2.364 6.115l14.96 37.493a197.703 197.703 0 00-27.628 27.628l-37.462-14.96a5.214 5.214 0 00-6.115 2.364 416.626 416.626 0 00-21.096 36.535 5.228 5.228 0 001.02 6.512l31.653 24.938a196.34 196.34 0 00-10.1 37.768l-39.928 5.768a5.214 5.214 0 00-4.148 5.095 410.308 410.308 0 000 42.192 5.217 5.217 0 004.148 5.095l39.898 5.768a196.341 196.341 0 0010.1 37.768l-31.655 25a5.228 5.228 0 00-1.02 6.512 416.626 416.626 0 0021.096 36.535 5.221 5.221 0 006.115 2.365l37.493-14.961a197.676 197.676 0 0027.628 27.628l-14.96 37.462a5.214 5.214 0 002.364 6.115 416.808 416.808 0 0036.535 21.096 5.234 5.234 0 003.437.646 5.234 5.234 0 003.075-1.665l24.938-31.654a196.268 196.268 0 0037.768 10.099l5.768 39.899a5.215 5.215 0 005.095 4.147 410.07 410.07 0 0042.192 0 5.215 5.215 0 005.095-4.147l5.768-39.899a196.268 196.268 0 0037.768-10.099l24.938 31.654a5.23 5.23 0 006.512 1.019 416.808 416.808 0 0036.535-21.096 5.214 5.214 0 002.364-6.115l-14.899-37.462a197.649 197.649 0 0027.628-27.628l37.463 14.961a5.22 5.22 0 006.114-2.365 416.808 416.808 0 0021.096-36.535 5.234 5.234 0 00.646-3.437 5.234 5.234 0 00-1.665-3.075l-31.654-24.937a196.297 196.297 0 0010.099-37.769l39.899-5.768a5.215 5.215 0 004.147-5.095 410.37 410.37 0 00.031-42.222zM240.51 373.952a133.449 133.449 0 01-123.285-82.376 133.442 133.442 0 11123.285 82.376z" fill="#fff" fill-opacity=".04"/></svg>